Coordinates
version=1
nRows=13
nColumns=40
inDegrees=yes

Units are S.I. units (second, meters, Newtons, ...)
If the header above contains a line with 'inDegrees', this indicates whether rotational values are in degrees (yes) or radians (no).

endheader
time	pelvis_tilt	pelvis_list	pelvis_rotation	pelvis_tx	pelvis_ty	pelvis_tz	hip_flexion_r	hip_adduction_r	hip_rotation_r	knee_angle_r	knee_angle_r_beta	ankle_angle_r	subtalar_angle_r	mtp_angle_r	hip_flexion_l	hip_adduction_l	hip_rotation_l	knee_angle_l	knee_angle_l_beta	ankle_angle_l	subtalar_angle_l	mtp_angle_l	lumbar_extension	lumbar_bending	lumbar_rotation	arm_flex_r	arm_add_r	arm_rot_r	elbow_flex_r	pro_sup_r	wrist_flex_r	wrist_dev_r	arm_flex_l	arm_add_l	arm_rot_l	elbow_flex_l	pro_sup_l	wrist_flex_l	wrist_dev_l
      0.00000000	     23.05336938	      8.37018361	     12.27395386	      0.02303220	      1.33353633	     -0.00581983	      4.87196616	    -12.63659348	    -17.30392392	     38.11518692	      0.66523551	    -22.56073585	    -21.65434959	      0.00000000	     47.54777378	     11.06251706	      5.25092400	    100.76946490	      1.75875895	    -25.73821552	    -31.42553616	      0.00000000	    -77.99272491	      3.19245964	      2.31136458	     30.78124058	    -16.78524965	    -31.80414208	     52.26375060	     32.82953649	      0.00000000	      0.00000000	     54.17634048	     17.34798829	    -14.41732776	     43.85099878	     42.65934767	      0.00000000	      0.00000000
      0.01700000	     23.49558239	      7.46207719	     12.25822773	      0.02284289	      1.33485463	     -0.00625273	      5.78812460	    -12.16004351	    -18.30492952	     42.95015281	      0.74962158	    -21.32728050	    -21.72578618	      0.00000000	     45.75886904	     10.11211230	      6.41072863	     96.23135721	      1.67955403	    -24.75225112	    -31.32966417	      0.00000000	    -78.47150203	      3.49882098	      3.25071499	     31.03526005	    -16.76730902	    -31.81650521	     52.31927497	     32.82824398	      0.00000000	      0.00000000	     54.28695953	     17.34018243	    -14.35638632	     43.94204454	     42.62160417	      0.00000000	      0.00000000
      0.03300000	     23.74528072	      6.73224569	     12.25055317	      0.02286960	      1.33559209	     -0.00682436	      6.83697593	    -11.98114744	    -19.13925537	     47.81046750	      0.83445007	    -19.99691418	    -21.22992138	      0.00000000	     44.13548817	      9.30833548	      7.39624305	     91.60861688	      1.59887199	    -23.79429717	    -31.12840656	      0.00000000	    -78.74625889	      3.70827682	      4.05114636	     31.08352095	    -16.72141057	    -31.96622283	     52.54915638	     32.79305932	      0.00000000	      0.00000000	     54.44137589	     17.37488600	    -14.27843286	     43.81433619	     42.46036476	      0.00000000	      0.00000000
      0.05000000	     24.04608208	      5.96849559	     12.24675959	      0.02297913	      1.33653398	     -0.00723585	      8.19940704	    -11.87294079	    -19.77879268	     52.92993464	      0.92380163	    -19.01174575	    -21.43608259	      0.00000000	     41.97752681	      8.29799704	      8.14768774	     86.59305631	      1.51133394	    -23.15605434	    -31.10527396	      0.00000000	    -79.04248642	      3.98046098	      4.86641035	     31.26265415	    -16.73218468	    -31.97221734	     52.63491618	     32.78414957	      0.00000000	      0.00000000	     54.60243326	     17.42256396	    -14.34161670	     43.70879186	     42.30352839	      0.00000000	      0.00000000
      0.06700000	     24.35960393	      5.10038409	     12.31978154	      0.02331835	      1.33766693	     -0.00770749	     10.08167312	    -11.88550320	    -20.16984126	     58.59219218	      1.02262667	    -17.82219869	    -21.96369088	      0.00000000	     39.16831479	      7.02019159	      8.54543888	     80.90335242	      1.41202988	    -22.83402475	    -31.12821268	      0.00000000	    -79.30537243	      4.44126144	      5.77882732	     31.52855236	    -16.92349418	    -31.81768974	     52.65076510	     32.81796787	      0.00000000	      0.00000000	     54.82610276	     17.52073345	    -14.64647486	     43.52455301	     42.20641114	      0.00000000	      0.00000000
      0.08300000	     24.46074563	      4.50266654	     12.09226606	      0.02383344	      1.33845364	     -0.00802722	     12.70982741	    -12.37300376	    -19.80904007	     64.68402152	      1.12894915	    -16.59059414	    -21.87128498	      0.00000000	     36.07209598	      5.68108140	      8.06485462	     74.63364478	      1.30260283	    -23.09312661	    -31.51540930	      0.00000000	    -79.35918529	      4.58200664	      6.49443610	     31.74709906	    -17.14908378	    -31.71858800	     52.71465494	     32.81565978	      0.00000000	      0.00000000	     55.13539599	     17.71588968	    -15.16340493	     43.12777810	     42.20911818	      0.00000000	      0.00000000
      0.10000000	     24.59814980	      3.86999562	     11.84759655	      0.02442892	      1.33915461	     -0.00816141	     15.51664720	    -12.77658024	    -19.33023977	     70.51473236	      1.23071425	    -15.60749167	    -21.82309171	      0.00000000	     32.65647994	      4.24532215	      7.55914644	     68.37218648	      1.19331977	    -23.56621138	    -31.58217984	      0.00000000	    -79.41519670	      4.74218306	      7.22356599	     32.01217226	    -17.30274257	    -31.58557853	     52.74731092	     32.83666809	      0.00000000	      0.00000000	     55.37442721	     17.84208968	    -15.72512020	     42.84729456	     42.34164133	      0.00000000	      0.00000000
      0.11700000	     24.69770635	      3.32133795	     11.35570439	      0.02507415	      1.33962455	     -0.00797544	     18.72653017	    -13.24959647	    -18.51367936	     76.13339582	      1.32877843	    -15.05304357	    -21.32457177	      0.00000000	     28.93339909	      2.73793070	      6.78803180	     62.08547331	      1.08359593	    -24.20281745	    -31.48678284	      0.00000000	    -79.40936047	      4.70450412	      7.89479151	     32.31548952	    -17.33754551	    -31.51990633	     52.78637471	     32.93118649	      0.00000000	      0.00000000	     55.56053220	     17.91593369	    -16.40576563	     42.56798208	     42.62558713	      0.00000000	      0.00000000
      0.13300000	     24.76903672	      2.80744724	     10.71105828	      0.02581037	      1.33983950	     -0.00762420	     22.28923306	    -13.72448612	    -17.46917246	     81.54558736	      1.42323899	    -14.68013309	    -20.62080820	      0.00000000	     24.92146561	      1.18273711	      5.66196110	     55.70481542	      0.97223244	    -25.10609955	    -31.20471908	      0.00000000	    -79.34033275	      4.56021339	      8.54469316	     32.62814256	    -17.29210130	    -31.48077044	     52.84526011	     33.07310705	      0.00000000	      0.00000000	     55.69576408	     17.95392374	    -17.16581855	     42.29233757	     43.02046547	      0.00000000	      0.00000000
      0.15000000	     24.81864300	      2.29393805	     10.14798658	      0.02650147	      1.33973488	     -0.00743436	     25.84034459	    -14.05062943	    -16.46151214	     86.30975226	      1.50638935	    -14.04724017	    -20.10002403	      0.00000000	     20.99115310	     -0.27758522	      4.44097405	     49.87164377	      0.87042439	    -26.23664793	    -30.59270064	      0.00000000	    -79.22441103	      4.48997355	      9.18043036	     32.83065059	    -17.12750422	    -31.57301695	     53.00351381	     33.35185179	      0.00000000	      0.00000000	     55.74807966	     17.90067976	    -17.77109309	     42.04771741	     43.43542913	      0.00000000	      0.00000000
      0.16700000	     24.75046099	      1.80687838	      9.73359563	      0.02700839	      1.33926253	     -0.00751584	     29.49032841	    -14.27580420	    -15.58250195	     90.47557466	      1.57909667	    -12.71991712	    -19.97788975	      0.00000000	     17.20723415	     -1.62878509	      3.19105262	     44.68646004	      0.77992586	    -27.34957083	    -29.39075313	      0.00000000	    -78.98324606	      4.53943202	      9.74296684	     32.93756997	    -16.75824225	    -31.82760274	     53.26181526	     33.52974512	      0.00000000	      0.00000000	     55.68926980	     17.70958496	    -18.06024523	     41.85760438	     43.77814927	      0.00000000	      0.00000000
      0.18300000	     24.67047922	      1.31819807	      9.41541958	      0.02744167	      1.33858199	     -0.00769396	     33.11161555	    -14.44277729	    -14.83048501	     94.03345062	      1.64119332	    -10.98573012	    -19.92794278	      0.00000000	     13.49825206	     -2.88734294	      1.96323834	     40.10006579	      0.69987818	    -28.65313198	    -28.13640148	      0.00000000	    -78.71218453	      4.67051336	     10.29298333	     32.92886613	    -16.28610161	    -32.16761701	     53.61010838	     33.81655013	      0.00000000	      0.00000000	     55.55228355	     17.43515848	    -18.16206597	     41.68753325	     44.02626178	      0.00000000	      0.00000000
      0.20000000	     24.51621861	      0.73410433	      9.47117165	      0.02762939	      1.33760289	     -0.00821084	     36.44723334	    -14.54891685	    -14.39905149	     96.70215275	      1.68777096	     -9.22323505	    -20.32917563	      0.00000000	     10.62591761	     -3.99843845	      1.38876053	     36.96476220	      0.64515681	    -29.68715831	    -26.81286279	      0.00000000	    -78.36046103	      5.14105499	     10.84290065	     32.86183692	    -15.83545565	    -32.41922067	     53.95583854	     33.94786753	      0.00000000	      0.00000000	     55.38936067	     17.13423020	    -18.11425652	     41.59534112	     44.07946830	      0.00000000	      0.00000000
